<?xml version="1.0" standalone="no"?><!DOCTYPE svg PUBLIC "-//W3C//DTD SVG 1.1//EN" "http://www.w3.org/Graphics/SVG/1.1/DTD/svg11.dtd"><svg t="1721143275108" class="icon" viewBox="0 0 1040 1024" version="1.1" xmlns="http://www.w3.org/2000/svg" p-id="1553" xmlns:xlink="http://www.w3.org/1999/xlink" width="203.125" height="200"><path d="M968.187387 459.877477c-0.461261-2.306306-11.224024-55.966366-68.574174-86.87087-46.894895-25.215616-109.472673-27.675676-186.657057-7.226427 2.921321-2.767568 9.378979-8.61021 21.218018-21.371772 59.502703-64.115315 81.796997-128.230631 64.115315-185.273273-0.461261-1.537538-11.377778-36.285886-39.514714-66.267868-26.753153-28.444444-74.416817-57.657658-148.833634-35.517117l-0.922522 0.307508-0.922523 0.461261c-2.152553 0.922523-46.433634 21.064264-79.644444 50.584985-9.993994-10.147748-29.366967-27.983183-54.582583-43.204805-50.892492-30.596997-101.323724-35.517117-146.066066-14.145345l-0.153754 0.153754c-1.537538 0.768769-37.823423 19.065465-65.345345 56.12012-25.830631 34.902102-48.73994 93.328529-10.301502 172.972973 1.845045 4.151351 15.836637 32.74955 60.578979 74.724324-60.732733-19.219219-134.380781-31.980781-188.348348-6.765165l-0.768769 0.461261c-0.922523 0.461261-23.678078 12.915315-44.588588 38.438438-27.983183 34.133333-39.822222 75.493093-34.133334 119.774175l0.153754 1.23003 0.307508 1.23003c0.922523 3.228829 22.294294 73.648048 102.707507 103.015015-15.067868 35.055856-41.052252 116.391592 11.531532 171.589189 3.075075 3.69009 22.294294 24.600601 54.275075 36.747147 31.51952 11.992793 82.104505 17.681682 144.067267-23.370571 4.458859-2.613814 82.412012-53.813814 128.845646-132.074474 0 0-11.685285 180.660661-157.597598 320.115315l92.713514 0.307508c30.443243-45.203604 84.103303-188.348348 101.631231-325.035436 11.685285 52.276276 35.055856 122.234234 83.488288 156.982583 7.072673 6.765165 55.043844 50.277477 128.076877 50.277477 15.836637 0 32.74955-1.998799 50.738739-6.918918 3.228829-0.768769 23.524324-6.303904 45.203603-23.524325 21.064264-16.605405 47.817417-47.971171 56.427628-102.707507l0.153754-1.076277v-1.076276c0-2.306306 0.461261-48.432432-17.835436-83.027027 22.140541-7.995195 55.812613-24.908108 78.875676-58.58018 23.370571-35.055856 30.135736-79.336937 19.68048-131.45946z" p-id="1554" fill="#35823a"></path></svg>